<?xml version="1.0" encoding="UTF-8" standalone="no"?>
<svg
   xmlns:dc="http://purl.org/dc/elements/1.1/"
   xmlns:cc="http://creativecommons.org/ns#"
   xmlns:rdf="http://www.w3.org/1999/02/22-rdf-syntax-ns#"
   xmlns:svg="http://www.w3.org/2000/svg"
   xmlns="http://www.w3.org/2000/svg"
   xmlns:sodipodi="http://sodipodi.sourceforge.net/DTD/sodipodi-0.dtd"
   xmlns:inkscape="http://www.inkscape.org/namespaces/inkscape"
   viewBox="0 0 50 50"
   version="1.1"
   id="svg845"
   sodipodi:docname="google-maps.svg"
   inkscape:version="1.0.1 (3bc2e813f5, 2020-09-07)">
  <defs
     id="defs849" />
  <sodipodi:namedview
     pagecolor="#ffffff"
     bordercolor="#666666"
     borderopacity="1"
     objecttolerance="10"
     gridtolerance="10"
     guidetolerance="10"
     inkscape:pageopacity="0"
     inkscape:pageshadow="2"
     inkscape:window-width="1920"
     inkscape:window-height="1027"
     id="namedview847"
     showgrid="false"
     inkscape:zoom="5.9207569"
     inkscape:cx="1.0261677"
     inkscape:cy="35.104544"
     inkscape:window-x="-8"
     inkscape:window-y="-8"
     inkscape:window-maximized="1"
     inkscape:current-layer="svg845" />
  <path
     d="m 34.940681,13.811619 c -0.285482,0 -0.572954,0.01065 -0.850469,0.04183 -0.0757,0.0073 -0.1527,0.03054 -0.228385,0.04116 -0.202495,0.02656 -0.404985,0.06241 -0.601503,0.10357 -0.07569,0.01593 -0.132782,0.02324 -0.207804,0.04183 -0.194527,0.04647 -0.391708,0.103568 -0.580923,0.165976 -0.06174,0.02059 -0.124152,0.03851 -0.186558,0.06241 -0.199174,0.07237 -0.409633,0.160667 -0.601503,0.248303 -0.04647,0.02125 -0.07768,0.04183 -0.124815,0.06241 a 8.2324916,8.2324916 0 0 0 -0.601503,0.311374 c -0.0312,0.01792 -0.07303,0.04382 -0.103569,0.06241 a 7.7411975,7.7411975 0 0 0 -0.602166,0.394362 c -0.01528,0.01261 -0.02591,0.02788 -0.04116,0.04116 -0.207802,0.155355 -0.409631,0.323989 -0.601502,0.497934 -0.0054,0.0054 -0.01593,-0.0054 -0.02125,0 -0.199173,0.181247 -0.381084,0.381085 -0.559677,0.580923 -1.266077,1.410808 -2.054138,3.270422 -2.054138,5.311283 0,2.7539 1.418776,4.642064 2.92519,6.639107 0.547061,0.726317 1.130638,1.491142 1.681019,2.344266 1.185083,1.488489 2.279207,3.239886 2.883366,5.560253 0.09295,0.360504 0.09096,0.643328 0.248966,0.768145 0.07303,0.01526 0.142741,0.01992 0.228385,0.01992 0.08565,0 0.155355,-0.0073 0.228385,-0.01992 0.158012,-0.124817 0.155354,-0.407641 0.248967,-0.768145 0.604159,-2.321031 1.698284,-4.071764 2.883364,-5.560253 0.550382,-0.853124 1.133959,-1.620604 1.681022,-2.344266 0.09295,-0.12216 0.179255,-0.251623 0.269547,-0.373782 0.142741,-0.189214 0.277515,-0.370463 0.414945,-0.559677 0.06506,-0.0883 0.122158,-0.18191 0.186558,-0.270212 0.104232,-0.147387 0.21046,-0.287473 0.311374,-0.435524 0.07303,-0.108882 0.137429,-0.223075 0.207804,-0.331955 0.08764,-0.134776 0.189215,-0.256271 0.269547,-0.393699 0.07303,-0.122161 0.139421,-0.248968 0.207141,-0.373782 0.07303,-0.129463 0.142741,-0.262246 0.207804,-0.394364 0.06704,-0.134774 0.126808,-0.277514 0.186558,-0.414943 0.0571,-0.126808 0.116849,-0.264238 0.165977,-0.3937 0.05975,-0.153363 0.09627,-0.298759 0.145398,-0.45677 0.03851,-0.124816 0.09029,-0.246311 0.124151,-0.373782 0.04647,-0.185895 0.07039,-0.386397 0.104232,-0.58092 0.01793,-0.108883 0.04912,-0.199176 0.06175,-0.310712 a 7.9005363,7.9005363 0 0 0 0.06241,-0.975285 c 0,-4.393096 -3.57383,-7.966927 -7.966927,-7.966927 z M 15.251748,16.467262 A 2.8913306,2.8913306 0 0 0 12.36772,19.35129 v 22.116191 c 0,0.150706 0.01793,0.290793 0.04183,0.436188 0.211786,1.376287 1.405498,2.447839 2.841536,2.447839 H 37.36794 c 0.150709,0 0.290794,-0.01793 0.43619,-0.04183 a 2.8787163,2.8787163 0 0 0 2.426593,-2.613816 h 0.02125 v -11.43188 a 25.593754,25.593754 0 0 0 -0.829887,1.203671 l -0.08299,0.12415 c -1.345746,1.69098 -2.163021,3.249843 -2.635062,5.062319 -0.02057,0.07768 -0.02854,0.140085 -0.04116,0.207804 -0.05179,0.269547 -0.148051,0.699761 -0.45677,1.057609 l 2.718051,2.718714 v 0.829888 A 1.5641735,1.5641735 0 0 1 37.367948,43.02368 H 36.53806 l -9.33592,-9.315331 2.385432,-2.42792 2.365513,2.386095 a 15.809704,15.809704 0 0 0 -1.41081,-2.074721 l -0.08299,-0.12415 C 30.072887,30.868143 29.681181,30.344318 29.29744,29.828459 L 16.081633,43.023687 H 15.251745 A 1.5641735,1.5641735 0 0 1 13.695538,41.467481 V 40.637592 L 27.285125,27.027424 C 26.34901,25.544248 25.64593,23.892437 25.64593,21.778548 c 0,-1.973808 0.624739,-3.804209 1.680356,-5.311286 z m 3.838068,2.655644 a 4.0100202,4.0100202 0 0 1 2.71805,1.058272 l -1.141263,1.141262 a 2.399373,2.399373 0 0 0 -1.576787,-0.581585 2.4498302,2.4498302 0 0 0 -2.448503,2.448501 2.4498302,2.4498302 0 0 0 2.448503,2.448504 c 1.135286,0 1.911398,-0.679845 2.199535,-1.618614 h -2.199535 v -1.556208 h 3.817486 c 0.334611,1.582101 -0.269548,4.77219 -3.817486,4.77219 -2.2407,0 -4.066454,-1.805173 -4.066454,-4.045872 a 4.0730917,4.0730917 0 0 1 4.066454,-4.06645 z m 15.850865,0.66391 a 1.9923961,1.9923961 0 1 1 -0.0013,3.984791 1.9923961,1.9923961 0 0 1 0.0013,-3.984791 z"
     id="surface1"
     style="stroke-width:0.663911" />
  <metadata
     id="metadata843">
    <rdf:RDF>
      <rdf:Description
         about="https://iconscout.com/legal#licenses"
         dc:title="google,maps,filled"
         dc:description="google,maps,filled"
         dc:publisher="Iconscout"
         dc:date="2017-12-09"
         dc:format="image/svg+xml"
         dc:language="en">
        <dc:creator>
          <rdf:Bag>
            <rdf:li>Icons8</rdf:li>
          </rdf:Bag>
        </dc:creator>
      </rdf:Description>
      <cc:Work
         rdf:about="">
        <dc:format>image/svg+xml</dc:format>
        <dc:type
           rdf:resource="http://purl.org/dc/dcmitype/StillImage" />
      </cc:Work>
    </rdf:RDF>
  </metadata>
  <path
     d="M 45.514817,10.54134 A 0.40763133,0.40763133 0 0 0 45.10708,10.133603 H 42.645924 L 45.43677,6.2959328 A 0.40758242,0.40758242 0 0 0 45.10708,5.6484919 h -3.2619 a 0.40773743,0.40773743 0 0 0 0,0.8154743 h 2.461156 l -2.790849,3.8376698 a 0.40758242,0.40758242 0 0 0 0.329693,0.647442 h 3.2619 a 0.40763133,0.40763133 0 0 0 0.407737,-0.407738 z m 0,4.485111 h -1.63095 l 1.957059,-2.609678 a 0.40755386,0.40755386 0 0 0 -0.326109,-0.652219 h -2.446423 a 0.40773736,0.40773736 0 0 0 0,0.815473 h 1.630948 l -1.957057,2.609679 a 0.40755386,0.40755386 0 0 0 0.326109,0.652219 h 2.446423 a 0.40773739,0.40773739 0 0 0 0,-0.815474 z m 4.077374,-2.038685 H 47.521052 L 49.926265,9.5518583 A 0.40763541,0.40763541 0 0 0 49.592191,8.9103912 h -2.854162 a 0.40773736,0.40773736 0 0 0 0,0.8154733 h 2.071139 L 46.403953,13.16177 a 0.40763541,0.40763541 0 0 0 0.334076,0.641469 h 2.854162 a 0.40773739,0.40773739 0 0 0 0,-0.815473 z"
     id="path886"
     style="stroke-width:0.407736" />
</svg>
