<svg xmlns="http://www.w3.org/2000/svg" data-name="Layer 1" viewBox="0 0 29 29"><path d="M14,14a.99974.99974,0,0,0-1-1H6.96387l6.84472-9.41211A.99962.99962,0,0,0,13,2H5A1,1,0,0,0,5,4h6.03613L4.19141,13.41211A.99962.99962,0,0,0,5,15h8A.99974.99974,0,0,0,14,14Zm0,11H10l4.7998-6.40039A.99955.99955,0,0,0,14,17H8a1,1,0,0,0,0,2h4L7.2002,25.40039A.99955.99955,0,0,0,8,27h6a1,1,0,0,0,0-2Zm10-5H18.92041l5.89893-8.42676A.99975.99975,0,0,0,24,10H17a1,1,0,0,0,0,2h5.07959l-5.89893,8.42676A.99975.99975,0,0,0,17,22h7a1,1,0,0,0,0-2Z"/></svg>